<?xml version="1.0" encoding="UTF-8"?>
<svg width="44px" height="44px" viewBox="0 0 44 44" version="1.1" xmlns="http://www.w3.org/2000/svg" xmlns:xlink="http://www.w3.org/1999/xlink">
    <!-- Generator: sketchtool 53.1 (72631) - https://sketchapp.com -->
    <title>BE2DE6F2-5332-4BE4-B3F2-DF481AE3D368</title>
    <desc>Created with sketchtool.</desc>
    <g id="Designs" stroke="none" stroke-width="1" fill="none" fill-rule="evenodd">
        <g id="Resource" transform="translate(-671.000000, -1230.000000)">
            <g id="Group-15" transform="translate(228.000000, 764.000000)">
                <g id="Group-6" transform="translate(443.000000, 0.000000)">
                    <g id="Group-5">
                        <g id="Group-9" transform="translate(0.000000, 466.000000)">
                            <g id="Group-13">
                                <circle id="Oval" fill="#4842B7" cx="22" cy="22" r="22"></circle>
                                <g id="Group-8" transform="translate(14.000000, 10.000000)">
                                    <path d="M1.1875,21.5 L15.1875,21.5" id="Line-2" stroke="#FFFFFF" stroke-linecap="square"></path>
                                    <path d="M11.253125,3.208125 C10.985,2.930625 10.53875,2.930625 10.26125,3.208125 C9.993125,3.47625 9.993125,3.9225 10.26125,4.19 L15.290625,9.219375 L-1.305625,9.219375 C-1.6925,9.22 -2,9.5275 -2,9.914375 C-2,10.30125 -1.6925,10.61875 -1.305625,10.61875 L15.290625,10.61875 L10.26125,15.63875 C9.993125,15.91625 9.993125,16.363125 10.26125,16.630625 C10.53875,16.908125 10.985625,16.908125 11.253125,16.630625 L17.473125,10.410625 C17.750625,10.1425 17.750625,9.69625 17.473125,9.42875 L11.253125,3.208125 Z" id="Path" fill="#FFFFFF" fill-rule="nonzero" transform="translate(7.840625, 9.919375) rotate(90.000000) translate(-7.840625, -9.919375) "></path>
                                </g>
                            </g>
                            <g id="109617" transform="translate(22.000000, 19.000000) rotate(90.000000) translate(-22.000000, -19.000000) translate(12.000000, 12.000000)"></g>
                        </g>
                    </g>
                </g>
            </g>
        </g>
    </g>
</svg>